#!OML:ASF F:\VICON\USERDATA\INSTALL\rory3\rory3.ASF
:FULLY-SPECIFIED
:DEGREES
173
root -1.76111 17.5673 1.22945 -3.79214 -42.5286 9.5101
lowerback 11.9979 -0.653567 -5.71607
upperback 2.18436 -1.63288 -0.117352
thorax -4.27565 -0.749093 3.35286
lowerneck -17.0355 -1.4076 -11.7522
upperneck 38.5224 0.755644 1.65855
head 16.8665 -1.42031 2.89393
rclavicle -5.86415e-015 -2.78299e-014
rhumerus -38.645 -9.5051 -78.7092
rradius 33.0108
rwrist 4.76742
rhand -13.3871 7.00837
rfingers 7.12502
rthumb 12.7201 -22.5842
lclavicle -5.86415e-015 -2.78299e-014
lhumerus -25.3464 -11.8703 90.1415
lradius 34.9515
lwrist -0.94292
lhand -17.5635 28.196
lfingers 7.12502
lthumb 8.69161 57.9971
rfemur -32.3273 -5.99627 15.781
rtibia 26.0709
rfoot -1.57507 0.873778
rtoes 1.37191
lfemur 17.8624 -0.824105 -31.4566
ltibia -1.90833e-014
lfoot -6.83293 -0.00301069
ltoes -18.0764
174
root -1.86377 17.5882 1.31105 -3.51186 -42.1737 9.30682
lowerback 12.0768 -0.696606 -5.56866
upperback 2.07318 -1.66978 0.040017
thorax -4.43207 -0.760295 3.44474
lowerneck -16.8949 -1.398 -11.7858
upperneck 38.7103 0.818896 1.50076
head 16.9326 -1.43345 2.84241
rclavicle -8.99501e-014 6.36111e-015
rhumerus -38.8626 -9.76358 -78.3522
rradius 32.6644
rwrist 4.88788
rhand -13.4815 6.86846
rfingers 7.12502
rthumb 12.629 -22.7298
lclavicle -8.99501e-014 6.36111e-015
lhumerus -25.7097 -11.3594 90.3277
lradius 35.1542
lwrist -2.26109
lhand -17.0559 28.2942
lfingers 7.12502
lthumb 9.18142 58.0743
rfemur -32.3158 -5.35911 15.6472
rtibia 26.3401
rfoot -0.566394 0.686909
rtoes 3.85842
lfemur 18.1483 -1.09675 -31.2002
ltibia -3.81667e-014
lfoot -6.21196 -0.345465
ltoes -19.0256
175
root -1.96353 17.6139 1.39313 -2.96452 -42.0965 8.74689
lowerback 12.1932 -0.675276 -5.16688
upperback 1.93546 -1.58584 0.282381
thorax -4.65392 -0.71282 3.46581
lowerneck -16.7196 -1.38548 -11.7653
upperneck 38.8766 0.895616 1.25536
head 16.9792 -1.44436 2.74311
rclavicle 5.74488e-014 1.51076e-014
rhumerus -38.9847 -10.2244 -77.8812
rradius 32.1427
rwrist 5.30198
rhand -13.636 6.81247
rfingers 7.12502
rthumb 12.48 -22.7949
lclavicle 5.74488e-014 1.51076e-014
lhumerus -26.1524 -11.0166 90.5754
lradius 35.4122
lwrist -3.43675
lhand -16.2606 28.5673
lfingers 7.12502
lthumb 9.94875 58.3122
rfemur -32.2439 -4.73722 15.9625
rtibia 26.544
rfoot -0.0710753 -0.769417
rtoes 3.41276
lfemur 18.3809 -1.12207 -30.6332
ltibia 4.45278e-014
lfoot -5.58876 -0.785935
ltoes -20.6523
176
root -2.05787 17.6433 1.47988 -2.32055 -42.0311 7.88304
lowerback 12.2873 -0.659309 -4.36516
upperback 1.94929 -1.45123 0.524444
thorax -4.71833 -0.655955 3.24886
lowerneck -16.6212 -1.43923 -11.8478
upperneck 38.9485 0.841711 1.2187
head 17.0019 -1.48659 2.73165
rclavicle 1.23445e-013 -1.82882e-014
rhumerus -38.9291 -10.8534 -77.42
rradius 31.5883
rwrist 5.77036
rhand -13.8187 6.81421
rfingers 7.12502
rthumb 12.3039 -22.8038
lclavicle 1.23445e-013 -1.82882e-014
lhumerus -26.3822 -11.0325 90.7966
lradius 35.5844
lwrist -4.37084
lhand -16.0951 28.7881
lfingers 7.12502
lthumb 10.1084 58.5253
rfemur -31.955 -4.29705 16.5848
rtibia 26.7468
rfoot -0.111888 -2.6765
rtoes 2.12586
lfemur 18.7282 -1.12447 -29.8284
ltibia 3.18055e-015
lfoot -4.89566 -1.31715
ltoes -21.4272
177
root -2.15069 17.6704 1.57164 -1.80229 -41.8715 7.05791
lowerback 12.4227 -0.682513 -3.52776
upperback 2.01754 -1.36406 0.764344
thorax -4.74292 -0.625698 3.01621
lowerneck -16.538 -1.49328 -12.011
upperneck 38.9802 0.781778 1.27573
head 17.0058 -1.52708 2.77525
rclavicle 5.12864e-014 -2.14687e-014
rhumerus -38.9228 -11.2298 -77.0335
rradius 31.1823
rwrist 5.84393
rhand -13.9721 6.82291
rfingers 7.12502
rthumb 12.156 -22.8039
lclavicle 5.12864e-014 -2.14687e-014
lhumerus -26.5394 -10.9346 91.0492
lradius 35.6472
lwrist -5.35723
lhand -16.6915 28.2856
lfingers 7.12502
lthumb 9.53299 58.05
rfemur -31.518 -3.9844 17.1723
rtibia 26.9414
rfoot 0.344728 -3.31669
rtoes 4.92982
lfemur 19.1898 -1.19154 -29.0801
ltibia 3.18055e-014
lfoot -4.05201 -1.72622
ltoes -21.8907
178
root -2.24886 17.6905 1.65767 -1.6179 -41.6848 6.65384
lowerback 12.6776 -0.672759 -3.11716
upperback 2.05904 -1.29617 0.93532
thorax -4.85047 -0.596473 2.95861
lowerneck -16.5855 -1.54405 -12.0759
upperneck 39.1721 0.74908 1.2452
head 17.1294 -1.56544 2.77037
rclavicle 7.41467e-014 3.18055e-015
rhumerus -38.9814 -11.6552 -76.6248
rradius 30.7907
rwrist 5.93655
rhand -14.1219 6.78265
rfingers 7.12502
rthumb 12.0115 -22.8527
lclavicle 7.41467e-014 3.18055e-015
lhumerus -26.8642 -10.8103 91.3213
lradius 35.8743
lwrist -6.36629
lhand -17.0115 28.0761
lfingers 7.12502
lthumb 9.22426 57.8543
rfemur -31.0324 -3.798 17.4825
rtibia 27.118
rfoot 0.939124 -3.06715
rtoes 8.51315
lfemur 19.7023 -1.26574 -28.6474
ltibia -1.90833e-014
lfoot -3.00202 -2.06375
ltoes -22.809
179
root -2.35367 17.7146 1.74452 -1.48057 -41.5743 6.46182
lowerback 12.8022 -0.589802 -2.91922
upperback 2.05654 -1.15634 1.06551
thorax -4.93337 -0.528396 2.96376
lowerneck -16.709 -1.63953 -12.101
upperneck 39.5222 0.672965 1.15
head 17.3678 -1.6353 2.72338
rclavicle 1.29806e-013 -7.15625e-015
rhumerus -39.088 -12.1408 -76.183
rradius 30.3802
rwrist 6.07725
rhand -14.4917 6.68541
rfingers 7.12502
rthumb 11.655 -22.9704
lclavicle 1.29806e-013 -7.15625e-015
lhumerus -27.3771 -10.8557 91.6724
lradius 36.2632
lwrist -7.32978
lhand -16.7876 28.0545
lfingers 7.12502
lthumb 9.44028 57.8231
rfemur -30.6693 -3.58905 17.6382
rtibia 27.2902
rfoot 1.49788 -2.31348
rtoes 13.0763
lfemur 18.2882 -1.26574 -28.3181
ltibia 3.57351
lfoot -3.49866 -2.13568
ltoes -23.7929
180
root -2.45681 17.7411 1.82975 -1.31272 -41.5383 6.29332
lowerback 12.8368 -0.508315 -2.76903
upperback 2.08422 -1.02215 1.19567
thorax -4.93312 -0.464599 2.99396
lowerneck -16.6576 -1.66027 -12.0078
upperneck 39.5658 0.67873 0.957695
head 17.383 -1.64705 2.62051
rclavicle -6.16232e-015 -4.77083e-015
rhumerus -39.1369 -12.2467 -75.946
rradius 30.1211
rwrist 5.93439
rhand -14.7543 6.55506
rfingers 7.12502
rthumb 11.4018 -23.1149
lclavicle -6.16232e-015 -4.77083e-015
lhumerus -27.8479 -10.8688 91.9731
lradius 36.7183
lwrist -8.14447
lhand -16.6147 28.0382
lfingers 7.12502
lthumb 9.60713 57.7992
rfemur -30.3764 -3.32922 17.7912
rtibia 27.4864
rfoot 1.74777 -1.872
rtoes 16.0226
lfemur 16.5581 -1.18907 -28.0076
ltibia 7.60862
lfoot -4.10042 -2.26903
ltoes -25.7088
181
root -2.55824 17.768 1.91646 -1.37971 -41.5515 6.44444
lowerback 12.7449 -0.443787 -2.75499
upperback 2.21087 -0.934037 1.18127
thorax -4.75587 -0.427266 2.95252
lowerneck -16.4355 -1.58854 -11.6682
upperneck 39.2392 0.75993 0.641556
head 17.139 -1.58403 2.42776
rclavicle -5.08889e-014 4.77083e-015
rhumerus -38.9653 -12.7874 -75.7098
rradius 29.7094
rwrist 6.2857
rhand -14.7517 6.59492
rfingers 7.12502
rthumb 11.4043 -23.0749
lclavicle -5.08889e-014 4.77083e-015
lhumerus -28.1889 -11.0648 92.1283
lradius 37.2283
lwrist -8.63596
lhand -16.9047 28.0261
lfingers 7.12502
lthumb 9.32727 57.7998
rfemur -30.0342 -3.18141 17.7165
rtibia 27.6907
rfoot 1.45975 -1.96516
rtoes 15.8336
lfemur 15.3785 -1.04905 -27.9798
ltibia 10.5197
lfoot -3.87557 -2.61013
ltoes -26.3155
182
root -2.66251 17.7938 2.00092 -1.60324 -41.5182 6.72777
lowerback 12.7406 -0.404862 -2.91833
upperback 2.34998 -0.906818 1.15385
thorax -4.60688 -0.417197 3.00984
lowerneck -16.2603 -1.52419 -11.453
upperneck 39.0309 0.829282 0.452086
head 16.9751 -1.5354 2.31499
rclavicle -2.72335e-014 2.3059e-014
rhumerus -38.7216 -13.4057 -75.4407
rradius 29.2023
rwrist 6.73692
rhand -14.6104 6.79528
rfingers 7.12502
rthumb 11.5405 -22.867
lclavicle -2.72335e-014 2.3059e-014
lhumerus -28.472 -11.3544 92.2622
lradius 37.6845
lwrist -8.89467
lhand -17.4678 28.1451
lfingers 7.12502
lthumb 8.78395 57.9423
rfemur -29.5608 -3.22858 17.5804
rtibia 27.8638
rfoot 0.754474 -2.35719
rtoes 13.3911
lfemur 14.3061 -1.08295 -28.0785
ltibia 13.27
lfoot -3.29461 -2.92859
ltoes -26.4873
